<mxfile host="app.diagrams.net" modified="2021-08-03T07:30:54.101Z" agent="5.0 (Windows NT 10.0; Win64; x64) AppleWebKit/537.36 (KHTML, like Gecko) Chrome/92.0.4515.107 Safari/537.36" etag="RVzYfbRCn-hgq3vrDjwj" version="14.9.3" type="github">
  <diagram id="ZP0Ch_xfNx0TdyuiFrSd" name="Page-1">
    <mxGraphModel dx="1422" dy="762" grid="1" gridSize="10" guides="1" tooltips="1" connect="1" arrows="1" fold="1" page="1" pageScale="1" pageWidth="827" pageHeight="1169" math="0" shadow="0">
      <root>
        <mxCell id="0" />
        <mxCell id="1" parent="0" />
        <mxCell id="MJDMsPKnnAIii4zc75l2-5" value="" style="group" vertex="1" connectable="0" parent="1">
          <mxGeometry x="100" y="160" width="550" height="230" as="geometry" />
        </mxCell>
        <mxCell id="MJDMsPKnnAIii4zc75l2-1" value="发票号1,发票号2,发票号3...." style="rounded=0;whiteSpace=wrap;html=1;" vertex="1" parent="MJDMsPKnnAIii4zc75l2-5">
          <mxGeometry width="296.15384615384613" height="230" as="geometry" />
        </mxCell>
        <mxCell id="MJDMsPKnnAIii4zc75l2-2" value="&lt;span style=&quot;color: rgb(24 , 43 , 80) ; font-family: &amp;#34;microsoft yahei&amp;#34; , &amp;#34;helvetica neue&amp;#34; , &amp;#34;pingfang sc&amp;#34; , sans-serif ; font-size: 14.63px ; text-align: left ; background-color: rgb(255 , 255 , 255)&quot;&gt;购方名称1&lt;/span&gt;" style="rounded=0;whiteSpace=wrap;html=1;" vertex="1" parent="MJDMsPKnnAIii4zc75l2-5">
          <mxGeometry x="296.15384615384613" width="253.84615384615384" height="76.66666666666667" as="geometry" />
        </mxCell>
        <mxCell id="MJDMsPKnnAIii4zc75l2-3" value="&lt;span style=&quot;color: rgb(24 , 43 , 80) ; font-family: &amp;#34;microsoft yahei&amp;#34; , &amp;#34;helvetica neue&amp;#34; , &amp;#34;pingfang sc&amp;#34; , sans-serif ; font-size: 14.63px ; text-align: left ; background-color: rgb(255 , 255 , 255)&quot;&gt;购方名称2&lt;/span&gt;" style="rounded=0;whiteSpace=wrap;html=1;" vertex="1" parent="MJDMsPKnnAIii4zc75l2-5">
          <mxGeometry x="296.15384615384613" y="76.66666666666667" width="253.84615384615384" height="76.66666666666667" as="geometry" />
        </mxCell>
        <mxCell id="MJDMsPKnnAIii4zc75l2-4" value="&lt;span style=&quot;color: rgb(24 , 43 , 80) ; font-family: &amp;#34;microsoft yahei&amp;#34; , &amp;#34;helvetica neue&amp;#34; , &amp;#34;pingfang sc&amp;#34; , sans-serif ; font-size: 14.63px ; text-align: left ; background-color: rgb(255 , 255 , 255)&quot;&gt;购方名称3&lt;/span&gt;" style="rounded=0;whiteSpace=wrap;html=1;" vertex="1" parent="MJDMsPKnnAIii4zc75l2-5">
          <mxGeometry x="296.15384615384613" y="153.33333333333334" width="253.84615384615384" height="76.66666666666667" as="geometry" />
        </mxCell>
      </root>
    </mxGraphModel>
  </diagram>
</mxfile>
